<?xml version="1.0" encoding="UTF-8" standalone="no"?><svg xmlns="http://www.w3.org/2000/svg" xmlns:xlink="http://www.w3.org/1999/xlink" contentStyleType="text/css" height="1644px" preserveAspectRatio="none" style="width:2124px;height:1644px;background:#FFFFFF;" version="1.1" viewBox="0 0 2124 1644" width="2124px" zoomAndPan="magnify"><defs/><g><rect fill="#FFFFFF" height="1118.5938" style="stroke:#181818;stroke-width:4.0;" width="40" x="884" y="279.8438"/><rect fill="#FFFFFF" height="165.4063" style="stroke:#181818;stroke-width:4.0;" width="40" x="904" y="1083.625"/><rect fill="#FFFFFF" height="528.9688" style="stroke:#181818;stroke-width:4.0;" width="40" x="1764" y="401.25"/><rect fill="none" height="969.1875" style="stroke:#000000;stroke-width:6.0;" width="2086" x="12" y="461.25"/><line style="stroke:#181818;stroke-width:2.0;stroke-dasharray:5.0,5.0;" x1="902" x2="902" y1="150.4375" y2="1498.4375"/><line style="stroke:#181818;stroke-width:2.0;stroke-dasharray:5.0,5.0;" x1="1782" x2="1782" y1="150.4375" y2="1498.4375"/><rect fill="#E2E2F0" height="126.4375" rx="10" ry="10" style="stroke:#181818;stroke-width:2.0;" width="492" x="658" y="20"/><text fill="#000000" font-family="sans-serif" font-size="56" lengthAdjust="spacing" textLength="436" x="686" y="106.1328">CAFF adatkezelő</text><rect fill="#E2E2F0" height="126.4375" rx="10" ry="10" style="stroke:#181818;stroke-width:2.0;" width="492" x="658" y="1494.4375"/><text fill="#000000" font-family="sans-serif" font-size="56" lengthAdjust="spacing" textLength="436" x="686" y="1580.5703">CAFF adatkezelő</text><rect fill="#E2E2F0" height="126.4375" rx="10" ry="10" style="stroke:#181818;stroke-width:2.0;" width="548" x="1510" y="20"/><text fill="#000000" font-family="sans-serif" font-size="56" lengthAdjust="spacing" textLength="492" x="1538" y="106.1328">Felhasználói kezelő</text><rect fill="#E2E2F0" height="126.4375" rx="10" ry="10" style="stroke:#181818;stroke-width:2.0;" width="548" x="1510" y="1494.4375"/><text fill="#000000" font-family="sans-serif" font-size="56" lengthAdjust="spacing" textLength="492" x="1538" y="1580.5703">Felhasználói kezelő</text><rect fill="#FFFFFF" height="1118.5938" style="stroke:#181818;stroke-width:4.0;" width="40" x="884" y="279.8438"/><rect fill="#FFFFFF" height="165.4063" style="stroke:#181818;stroke-width:4.0;" width="40" x="904" y="1083.625"/><rect fill="#FFFFFF" height="528.9688" style="stroke:#181818;stroke-width:4.0;" width="40" x="1764" y="401.25"/><polygon fill="#181818" points="836,263.8438,876,279.8438,836,295.8438,852,279.8438" style="stroke:#181818;stroke-width:4.0;"/><line style="stroke:#181818;stroke-width:4.0;" x1="0" x2="860" y1="279.8438" y2="279.8438"/><text fill="#000000" font-family="sans-serif" font-size="52" lengthAdjust="spacing" textLength="780" x="28" y="260.418">CAFF adatok megtekintése kérés</text><polygon fill="#181818" points="1716,385.25,1756,401.25,1716,417.25,1732,401.25" style="stroke:#181818;stroke-width:4.0;"/><line style="stroke:#181818;stroke-width:4.0;" x1="924" x2="1740" y1="401.25" y2="401.25"/><text fill="#000000" font-family="sans-serif" font-size="52" lengthAdjust="spacing" textLength="528" x="952" y="381.8242">Jogosultság ellenőrzés</text><path d="M12,461.25 L256,461.25 L256,494.6563 L216,534.6563 L12,534.6563 L12,461.25 " fill="#EEEEEE" style="stroke:#000000;stroke-width:6.0;"/><rect fill="none" height="969.1875" style="stroke:#000000;stroke-width:6.0;" width="2086" x="12" y="461.25"/><text fill="#000000" font-family="sans-serif" font-size="52" font-weight="bold" lengthAdjust="spacing" textLength="64" x="72" y="519.2305">alt</text><text fill="#000000" font-family="sans-serif" font-size="44" font-weight="bold" lengthAdjust="spacing" textLength="324" x="316" y="514.9258">[nem jogosult]</text><polygon fill="#181818" points="968,608.0625,928,624.0625,968,640.0625,952,624.0625" style="stroke:#181818;stroke-width:4.0;"/><line style="stroke:#181818;stroke-width:4.0;stroke-dasharray:2.0,2.0;" x1="944" x2="1760" y1="624.0625" y2="624.0625"/><text fill="#000000" font-family="sans-serif" font-size="52" lengthAdjust="spacing" textLength="412" x="992" y="604.6367">Nincs jogosultság</text><polygon fill="#181818" points="44,729.4688,4,745.4688,44,761.4688,28,745.4688" style="stroke:#181818;stroke-width:4.0;"/><line style="stroke:#181818;stroke-width:4.0;stroke-dasharray:2.0,2.0;" x1="20" x2="880" y1="745.4688" y2="745.4688"/><text fill="#000000" font-family="sans-serif" font-size="52" lengthAdjust="spacing" textLength="368" x="68" y="726.043">Kérés elutasítva</text><line style="stroke:#000000;stroke-width:4.0;stroke-dasharray:2.0,2.0;" x1="12" x2="2098" y1="781.4688" y2="781.4688"/><text fill="#000000" font-family="sans-serif" font-size="44" font-weight="bold" lengthAdjust="spacing" textLength="212" x="32" y="827.1445">[jogosult]</text><polygon fill="#181818" points="968,914.2188,928,930.2188,968,946.2188,952,930.2188" style="stroke:#181818;stroke-width:4.0;"/><line style="stroke:#181818;stroke-width:4.0;stroke-dasharray:2.0,2.0;" x1="944" x2="1780" y1="930.2188" y2="930.2188"/><text fill="#000000" font-family="sans-serif" font-size="52" lengthAdjust="spacing" textLength="372" x="992" y="910.793">Van jogosultság</text><line style="stroke:#181818;stroke-width:4.0;" x1="924" x2="1112" y1="1031.625" y2="1031.625"/><line style="stroke:#181818;stroke-width:4.0;" x1="1112" x2="1112" y1="1031.625" y2="1083.625"/><line style="stroke:#181818;stroke-width:4.0;" x1="948" x2="1112" y1="1083.625" y2="1083.625"/><polygon fill="#181818" points="988,1067.625,948,1083.625,988,1099.625,972,1083.625" style="stroke:#181818;stroke-width:4.0;"/><text fill="#000000" font-family="sans-serif" font-size="52" lengthAdjust="spacing" textLength="784" x="972" y="1012.1992">CAFF fájl adatainak megtekintése</text><line style="stroke:#181818;stroke-width:4.0;stroke-dasharray:2.0,2.0;" x1="944" x2="1112" y1="1245.0313" y2="1245.0313"/><line style="stroke:#181818;stroke-width:4.0;stroke-dasharray:2.0,2.0;" x1="1112" x2="1112" y1="1245.0313" y2="1297.0313"/><line style="stroke:#181818;stroke-width:4.0;stroke-dasharray:2.0,2.0;" x1="924" x2="1112" y1="1297.0313" y2="1297.0313"/><polygon fill="#181818" points="964,1281.0313,924,1297.0313,964,1313.0313,948,1297.0313" style="stroke:#181818;stroke-width:4.0;"/><text fill="#000000" font-family="sans-serif" font-size="52" lengthAdjust="spacing" textLength="256" x="972" y="1225.6055">Fájl adatok</text><polygon fill="#181818" points="44,1382.4375,4,1398.4375,44,1414.4375,28,1398.4375" style="stroke:#181818;stroke-width:4.0;"/><line style="stroke:#181818;stroke-width:4.0;stroke-dasharray:2.0,2.0;" x1="20" x2="900" y1="1398.4375" y2="1398.4375"/><text fill="#000000" font-family="sans-serif" font-size="52" lengthAdjust="spacing" textLength="256" x="68" y="1379.0117">Fájl adatok</text><!--MD5=[cf43b67932e664101e30eb8f0dcabdb0]
@startuml ViewData
scale 5

participant "CAFF adatkezelő" as caff
participant "Felhasználói kezelő" as felhasznalokezelo

-> caff : CAFF adatok megtekintése kérés
activate caff
caff -> felhasznalokezelo : Jogosultság ellenőrzés
activate felhasznalokezelo
alt nem jogosult
    felhasznalokezelo - -> caff : Nincs jogosultság
    <- - caff : Kérés elutasítva 
else jogosult
    felhasznalokezelo - -> caff : Van jogosultság
    deactivate felhasznalokezelo
    caff -> caff : CAFF fájl adatainak megtekintése
    activate caff
    caff - -> caff : Fájl adatok
    deactivate caff
    <- - caff : Fájl adatok
    deactivate caff 
end

@enduml

PlantUML version 1.2022.7(Mon Aug 22 19:01:30 CEST 2022)
(GPL source distribution)
Java Runtime: OpenJDK Runtime Environment
JVM: OpenJDK 64-Bit Server VM
Default Encoding: Cp1252
Language: en
Country: US
--></g></svg>