<?xml version="1.0" encoding="UTF-8" standalone="no"?><svg xmlns="http://www.w3.org/2000/svg" xmlns:xlink="http://www.w3.org/1999/xlink" contentStyleType="text/css" height="964px" preserveAspectRatio="none" style="width:1200px;height:964px;background:#FFFFFF;" version="1.1" viewBox="0 0 1200 964" width="1200px" zoomAndPan="magnify"><defs/><g><rect fill="#FFFFFF" height="468.2188" style="stroke:#181818;stroke-width:4.0;" width="40" x="584" y="279.8438"/><rect fill="#FFFFFF" height="165.4063" style="stroke:#181818;stroke-width:4.0;" width="40" x="604" y="433.25"/><line style="stroke:#181818;stroke-width:2.0;stroke-dasharray:5.0,5.0;" x1="602" x2="602" y1="150.4375" y2="820.0625"/><rect fill="#E2E2F0" height="126.4375" rx="10" ry="10" style="stroke:#181818;stroke-width:2.0;" width="452" x="378" y="20"/><text fill="#000000" font-family="sans-serif" font-size="56" lengthAdjust="spacing" textLength="396" x="406" y="106.1328">CAFF fájlkezelő</text><rect fill="#E2E2F0" height="126.4375" rx="10" ry="10" style="stroke:#181818;stroke-width:2.0;" width="452" x="378" y="816.0625"/><text fill="#000000" font-family="sans-serif" font-size="56" lengthAdjust="spacing" textLength="396" x="406" y="902.1953">CAFF fájlkezelő</text><rect fill="#FFFFFF" height="468.2188" style="stroke:#181818;stroke-width:4.0;" width="40" x="584" y="279.8438"/><rect fill="#FFFFFF" height="165.4063" style="stroke:#181818;stroke-width:4.0;" width="40" x="604" y="433.25"/><polygon fill="#181818" points="536,263.8438,576,279.8438,536,295.8438,552,279.8438" style="stroke:#181818;stroke-width:4.0;"/><line style="stroke:#181818;stroke-width:4.0;" x1="0" x2="560" y1="279.8438" y2="279.8438"/><text fill="#000000" font-family="sans-serif" font-size="52" lengthAdjust="spacing" textLength="508" x="28" y="260.418">CAFF keresés kérése</text><line style="stroke:#181818;stroke-width:4.0;" x1="624" x2="812" y1="381.25" y2="381.25"/><line style="stroke:#181818;stroke-width:4.0;" x1="812" x2="812" y1="381.25" y2="433.25"/><line style="stroke:#181818;stroke-width:4.0;" x1="648" x2="812" y1="433.25" y2="433.25"/><polygon fill="#181818" points="688,417.25,648,433.25,688,449.25,672,433.25" style="stroke:#181818;stroke-width:4.0;"/><text fill="#000000" font-family="sans-serif" font-size="52" lengthAdjust="spacing" textLength="500" x="672" y="361.8242">CAFF fájlok keresése</text><line style="stroke:#181818;stroke-width:4.0;stroke-dasharray:2.0,2.0;" x1="644" x2="812" y1="594.6563" y2="594.6563"/><line style="stroke:#181818;stroke-width:4.0;stroke-dasharray:2.0,2.0;" x1="812" x2="812" y1="594.6563" y2="646.6563"/><line style="stroke:#181818;stroke-width:4.0;stroke-dasharray:2.0,2.0;" x1="624" x2="812" y1="646.6563" y2="646.6563"/><polygon fill="#181818" points="664,630.6563,624,646.6563,664,662.6563,648,646.6563" style="stroke:#181818;stroke-width:4.0;"/><text fill="#000000" font-family="sans-serif" font-size="52" lengthAdjust="spacing" textLength="140" x="672" y="575.2305">Fájlok</text><polygon fill="#181818" points="44,732.0625,4,748.0625,44,764.0625,28,748.0625" style="stroke:#181818;stroke-width:4.0;"/><line style="stroke:#181818;stroke-width:4.0;stroke-dasharray:2.0,2.0;" x1="20" x2="600" y1="748.0625" y2="748.0625"/><text fill="#000000" font-family="sans-serif" font-size="52" lengthAdjust="spacing" textLength="140" x="68" y="728.6367">Fájlok</text><!--MD5=[b57845c10e3c80cd0675586e8d41cb10]
@startuml ViewData
scale 5

participant "CAFF fájlkezelő" as caff

-> caff : CAFF keresés kérése
activate caff
caff -> caff : CAFF fájlok keresése
activate caff
caff - -> caff : Fájlok
deactivate caff
<- - caff : Fájlok
deactivate caff

@enduml

PlantUML version 1.2022.7(Mon Aug 22 19:01:30 CEST 2022)
(GPL source distribution)
Java Runtime: OpenJDK Runtime Environment
JVM: OpenJDK 64-Bit Server VM
Default Encoding: UTF-8
Language: en
Country: US
--></g></svg>