<?xml version="1.0" encoding="UTF-8" standalone="no"?><svg xmlns="http://www.w3.org/2000/svg" xmlns:xlink="http://www.w3.org/1999/xlink" contentStyleType="text/css" height="1644px" preserveAspectRatio="none" style="width:2068px;height:1644px;background:#FFFFFF;" version="1.1" viewBox="0 0 2068 1644" width="2068px" zoomAndPan="magnify"><defs/><g><rect fill="#FFFFFF" height="1118.5938" style="stroke:#181818;stroke-width:4.0;" width="40" x="828" y="279.8438"/><rect fill="#FFFFFF" height="165.4063" style="stroke:#181818;stroke-width:4.0;" width="40" x="848" y="1083.625"/><rect fill="#FFFFFF" height="528.9688" style="stroke:#181818;stroke-width:4.0;" width="40" x="1708" y="401.25"/><rect fill="none" height="969.1875" style="stroke:#000000;stroke-width:6.0;" width="2030" x="12" y="461.25"/><line style="stroke:#181818;stroke-width:2.0;stroke-dasharray:5.0,5.0;" x1="846" x2="846" y1="150.4375" y2="1498.4375"/><line style="stroke:#181818;stroke-width:2.0;stroke-dasharray:5.0,5.0;" x1="1726" x2="1726" y1="150.4375" y2="1498.4375"/><rect fill="#E2E2F0" height="126.4375" rx="10" ry="10" style="stroke:#181818;stroke-width:2.0;" width="492" x="602" y="20"/><text fill="#000000" font-family="sans-serif" font-size="56" lengthAdjust="spacing" textLength="436" x="630" y="106.1328">CAFF adatkezelő</text><rect fill="#E2E2F0" height="126.4375" rx="10" ry="10" style="stroke:#181818;stroke-width:2.0;" width="492" x="602" y="1494.4375"/><text fill="#000000" font-family="sans-serif" font-size="56" lengthAdjust="spacing" textLength="436" x="630" y="1580.5703">CAFF adatkezelő</text><rect fill="#E2E2F0" height="126.4375" rx="10" ry="10" style="stroke:#181818;stroke-width:2.0;" width="548" x="1454" y="20"/><text fill="#000000" font-family="sans-serif" font-size="56" lengthAdjust="spacing" textLength="492" x="1482" y="106.1328">Felhasználói kezelő</text><rect fill="#E2E2F0" height="126.4375" rx="10" ry="10" style="stroke:#181818;stroke-width:2.0;" width="548" x="1454" y="1494.4375"/><text fill="#000000" font-family="sans-serif" font-size="56" lengthAdjust="spacing" textLength="492" x="1482" y="1580.5703">Felhasználói kezelő</text><rect fill="#FFFFFF" height="1118.5938" style="stroke:#181818;stroke-width:4.0;" width="40" x="828" y="279.8438"/><rect fill="#FFFFFF" height="165.4063" style="stroke:#181818;stroke-width:4.0;" width="40" x="848" y="1083.625"/><rect fill="#FFFFFF" height="528.9688" style="stroke:#181818;stroke-width:4.0;" width="40" x="1708" y="401.25"/><polygon fill="#181818" points="780,263.8438,820,279.8438,780,295.8438,796,279.8438" style="stroke:#181818;stroke-width:4.0;"/><line style="stroke:#181818;stroke-width:4.0;" x1="0" x2="804" y1="279.8438" y2="279.8438"/><text fill="#000000" font-family="sans-serif" font-size="52" lengthAdjust="spacing" textLength="476" x="28" y="260.418">CAFF letöltési kérés</text><polygon fill="#181818" points="1660,385.25,1700,401.25,1660,417.25,1676,401.25" style="stroke:#181818;stroke-width:4.0;"/><line style="stroke:#181818;stroke-width:4.0;" x1="868" x2="1684" y1="401.25" y2="401.25"/><text fill="#000000" font-family="sans-serif" font-size="52" lengthAdjust="spacing" textLength="528" x="896" y="381.8242">Jogosultság ellenőrzés</text><path d="M12,461.25 L256,461.25 L256,494.6563 L216,534.6563 L12,534.6563 L12,461.25 " fill="#EEEEEE" style="stroke:#000000;stroke-width:6.0;"/><rect fill="none" height="969.1875" style="stroke:#000000;stroke-width:6.0;" width="2030" x="12" y="461.25"/><text fill="#000000" font-family="sans-serif" font-size="52" font-weight="bold" lengthAdjust="spacing" textLength="64" x="72" y="519.2305">alt</text><text fill="#000000" font-family="sans-serif" font-size="44" font-weight="bold" lengthAdjust="spacing" textLength="792" x="316" y="514.9258">[nem tulajdonos és nem vette meg]</text><polygon fill="#181818" points="912,608.0625,872,624.0625,912,640.0625,896,624.0625" style="stroke:#181818;stroke-width:4.0;"/><line style="stroke:#181818;stroke-width:4.0;stroke-dasharray:2.0,2.0;" x1="888" x2="1704" y1="624.0625" y2="624.0625"/><text fill="#000000" font-family="sans-serif" font-size="52" lengthAdjust="spacing" textLength="412" x="936" y="604.6367">Nincs jogosultság</text><polygon fill="#181818" points="44,729.4688,4,745.4688,44,761.4688,28,745.4688" style="stroke:#181818;stroke-width:4.0;"/><line style="stroke:#181818;stroke-width:4.0;stroke-dasharray:2.0,2.0;" x1="20" x2="824" y1="745.4688" y2="745.4688"/><text fill="#000000" font-family="sans-serif" font-size="52" lengthAdjust="spacing" textLength="724" x="68" y="726.043">Kérés elutasítva, fizetés kérése</text><line style="stroke:#000000;stroke-width:4.0;stroke-dasharray:2.0,2.0;" x1="12" x2="2042" y1="781.4688" y2="781.4688"/><text fill="#000000" font-family="sans-serif" font-size="44" font-weight="bold" lengthAdjust="spacing" textLength="600" x="32" y="827.1445">[tulajdonos vagy megvette]</text><polygon fill="#181818" points="912,914.2188,872,930.2188,912,946.2188,896,930.2188" style="stroke:#181818;stroke-width:4.0;"/><line style="stroke:#181818;stroke-width:4.0;stroke-dasharray:2.0,2.0;" x1="888" x2="1724" y1="930.2188" y2="930.2188"/><text fill="#000000" font-family="sans-serif" font-size="52" lengthAdjust="spacing" textLength="372" x="936" y="910.793">Van jogosultság</text><line style="stroke:#181818;stroke-width:4.0;" x1="868" x2="1056" y1="1031.625" y2="1031.625"/><line style="stroke:#181818;stroke-width:4.0;" x1="1056" x2="1056" y1="1031.625" y2="1083.625"/><line style="stroke:#181818;stroke-width:4.0;" x1="892" x2="1056" y1="1083.625" y2="1083.625"/><polygon fill="#181818" points="932,1067.625,892,1083.625,932,1099.625,916,1083.625" style="stroke:#181818;stroke-width:4.0;"/><text fill="#000000" font-family="sans-serif" font-size="52" lengthAdjust="spacing" textLength="784" x="916" y="1012.1992">CAFF fájl adatainak megtekintése</text><line style="stroke:#181818;stroke-width:4.0;stroke-dasharray:2.0,2.0;" x1="888" x2="1056" y1="1245.0313" y2="1245.0313"/><line style="stroke:#181818;stroke-width:4.0;stroke-dasharray:2.0,2.0;" x1="1056" x2="1056" y1="1245.0313" y2="1297.0313"/><line style="stroke:#181818;stroke-width:4.0;stroke-dasharray:2.0,2.0;" x1="868" x2="1056" y1="1297.0313" y2="1297.0313"/><polygon fill="#181818" points="908,1281.0313,868,1297.0313,908,1313.0313,892,1297.0313" style="stroke:#181818;stroke-width:4.0;"/><text fill="#000000" font-family="sans-serif" font-size="52" lengthAdjust="spacing" textLength="256" x="916" y="1225.6055">Fájl adatok</text><polygon fill="#181818" points="44,1382.4375,4,1398.4375,44,1414.4375,28,1398.4375" style="stroke:#181818;stroke-width:4.0;"/><line style="stroke:#181818;stroke-width:4.0;stroke-dasharray:2.0,2.0;" x1="20" x2="844" y1="1398.4375" y2="1398.4375"/><text fill="#000000" font-family="sans-serif" font-size="52" lengthAdjust="spacing" textLength="256" x="68" y="1379.0117">Fájl adatok</text><!--MD5=[a5c2b9ec5c7abb6d906d8c847bcb58a9]
@startuml Download
scale 5

participant "CAFF adatkezelő" as caff
participant "Felhasználói kezelő" as felhasznalokezelo

-> caff : CAFF letöltési kérés
activate caff
caff -> felhasznalokezelo : Jogosultság ellenőrzés
activate felhasznalokezelo
alt nem tulajdonos és nem vette meg
    felhasznalokezelo - -> caff : Nincs jogosultság
    <- - caff : Kérés elutasítva, fizetés kérése
else tulajdonos vagy megvette
    felhasznalokezelo - -> caff : Van jogosultság
    deactivate felhasznalokezelo
    caff -> caff : CAFF fájl adatainak megtekintése
    activate caff
    caff - -> caff : Fájl adatok
    deactivate caff
    <- - caff : Fájl adatok
    deactivate caff 
end

@enduml

PlantUML version 1.2022.7(Mon Aug 22 19:01:30 CEST 2022)
(GPL source distribution)
Java Runtime: OpenJDK Runtime Environment
JVM: OpenJDK 64-Bit Server VM
Default Encoding: Cp1252
Language: en
Country: US
--></g></svg>