<?xml version="1.0" encoding="UTF-8" standalone="no"?><svg xmlns="http://www.w3.org/2000/svg" xmlns:xlink="http://www.w3.org/1999/xlink" contentStyleType="text/css" height="1644px" preserveAspectRatio="none" style="width:1584px;height:1644px;background:#FFFFFF;" version="1.1" viewBox="0 0 1584 1644" width="1584px" zoomAndPan="magnify"><defs/><g><rect fill="#FFFFFF" height="1146.5938" style="stroke:#181818;stroke-width:4.0;" width="40" x="480" y="279.8438"/><rect fill="#FFFFFF" height="165.4063" style="stroke:#181818;stroke-width:4.0;" width="40" x="500" y="777.4688"/><rect fill="#FFFFFF" height="121.4063" style="stroke:#181818;stroke-width:4.0;" width="40" x="1168" y="401.25"/><rect fill="#FFFFFF" height="121.4063" style="stroke:#181818;stroke-width:4.0;" width="40" x="1168" y="1155.625"/><rect fill="none" height="726.375" style="stroke:#000000;stroke-width:6.0;" width="1324" x="234" y="582.6563"/><line style="stroke:#181818;stroke-width:2.0;stroke-dasharray:5.0,5.0;" x1="498" x2="498" y1="150.4375" y2="1498.4375"/><line style="stroke:#181818;stroke-width:2.0;stroke-dasharray:5.0,5.0;" x1="1186" x2="1186" y1="150.4375" y2="1498.4375"/><rect fill="#E2E2F0" height="126.4375" rx="10" ry="10" style="stroke:#181818;stroke-width:2.0;" width="452" x="274" y="20"/><text fill="#000000" font-family="sans-serif" font-size="56" lengthAdjust="spacing" textLength="396" x="302" y="106.1328">CAFF fájlkezelő</text><rect fill="#E2E2F0" height="126.4375" rx="10" ry="10" style="stroke:#181818;stroke-width:2.0;" width="452" x="274" y="1494.4375"/><text fill="#000000" font-family="sans-serif" font-size="56" lengthAdjust="spacing" textLength="396" x="302" y="1580.5703">CAFF fájlkezelő</text><rect fill="#E2E2F0" height="126.4375" rx="10" ry="10" style="stroke:#181818;stroke-width:2.0;" width="660" x="858" y="20"/><text fill="#000000" font-family="sans-serif" font-size="56" lengthAdjust="spacing" textLength="604" x="886" y="106.1328">Felhasználói adatkezelő</text><rect fill="#E2E2F0" height="126.4375" rx="10" ry="10" style="stroke:#181818;stroke-width:2.0;" width="660" x="858" y="1494.4375"/><text fill="#000000" font-family="sans-serif" font-size="56" lengthAdjust="spacing" textLength="604" x="886" y="1580.5703">Felhasználói adatkezelő</text><rect fill="#FFFFFF" height="1146.5938" style="stroke:#181818;stroke-width:4.0;" width="40" x="480" y="279.8438"/><rect fill="#FFFFFF" height="165.4063" style="stroke:#181818;stroke-width:4.0;" width="40" x="500" y="777.4688"/><rect fill="#FFFFFF" height="121.4063" style="stroke:#181818;stroke-width:4.0;" width="40" x="1168" y="401.25"/><rect fill="#FFFFFF" height="121.4063" style="stroke:#181818;stroke-width:4.0;" width="40" x="1168" y="1155.625"/><polygon fill="#181818" points="432,263.8438,472,279.8438,432,295.8438,448,279.8438" style="stroke:#181818;stroke-width:4.0;"/><line style="stroke:#181818;stroke-width:4.0;" x1="0" x2="456" y1="279.8438" y2="279.8438"/><text fill="#000000" font-family="sans-serif" font-size="52" lengthAdjust="spacing" textLength="396" x="28" y="260.418">Módosítási kérés</text><polygon fill="#181818" points="1120,385.25,1160,401.25,1120,417.25,1136,401.25" style="stroke:#181818;stroke-width:4.0;"/><line style="stroke:#181818;stroke-width:4.0;" x1="520" x2="1144" y1="401.25" y2="401.25"/><text fill="#000000" font-family="sans-serif" font-size="52" lengthAdjust="spacing" textLength="528" x="548" y="381.8242">Jogosultság ellenőrzés</text><polygon fill="#181818" points="564,506.6563,524,522.6563,564,538.6563,548,522.6563" style="stroke:#181818;stroke-width:4.0;"/><line style="stroke:#181818;stroke-width:4.0;stroke-dasharray:2.0,2.0;" x1="540" x2="1184" y1="522.6563" y2="522.6563"/><text fill="#000000" font-family="sans-serif" font-size="52" lengthAdjust="spacing" textLength="372" x="588" y="503.2305">Van jogosultság</text><path d="M234,582.6563 L478,582.6563 L478,616.0625 L438,656.0625 L234,656.0625 L234,582.6563 " fill="#EEEEEE" style="stroke:#000000;stroke-width:6.0;"/><rect fill="none" height="726.375" style="stroke:#000000;stroke-width:6.0;" width="1324" x="234" y="582.6563"/><text fill="#000000" font-family="sans-serif" font-size="52" font-weight="bold" lengthAdjust="spacing" textLength="64" x="294" y="640.6367">alt</text><text fill="#000000" font-family="sans-serif" font-size="44" font-weight="bold" lengthAdjust="spacing" textLength="392" x="538" y="636.332">[CAFF módosítás]</text><line style="stroke:#181818;stroke-width:4.0;" x1="520" x2="708" y1="725.4688" y2="725.4688"/><line style="stroke:#181818;stroke-width:4.0;" x1="708" x2="708" y1="725.4688" y2="777.4688"/><line style="stroke:#181818;stroke-width:4.0;" x1="544" x2="708" y1="777.4688" y2="777.4688"/><polygon fill="#181818" points="584,761.4688,544,777.4688,584,793.4688,568,777.4688" style="stroke:#181818;stroke-width:4.0;"/><text fill="#000000" font-family="sans-serif" font-size="52" lengthAdjust="spacing" textLength="592" x="568" y="706.043">CAFF adatok módosítása</text><line style="stroke:#181818;stroke-width:4.0;stroke-dasharray:2.0,2.0;" x1="540" x2="708" y1="938.875" y2="938.875"/><line style="stroke:#181818;stroke-width:4.0;stroke-dasharray:2.0,2.0;" x1="708" x2="708" y1="938.875" y2="990.875"/><line style="stroke:#181818;stroke-width:4.0;stroke-dasharray:2.0,2.0;" x1="520" x2="708" y1="990.875" y2="990.875"/><polygon fill="#181818" points="560,974.875,520,990.875,560,1006.875,544,990.875" style="stroke:#181818;stroke-width:4.0;"/><text fill="#000000" font-family="sans-serif" font-size="52" lengthAdjust="spacing" textLength="120" x="568" y="919.4492">Siker</text><line style="stroke:#000000;stroke-width:4.0;stroke-dasharray:2.0,2.0;" x1="234" x2="1558" y1="1006.875" y2="1006.875"/><text fill="#000000" font-family="sans-serif" font-size="44" font-weight="bold" lengthAdjust="spacing" textLength="540" x="254" y="1052.5508">[Felhasználó módosítás]</text><polygon fill="#181818" points="1120,1139.625,1160,1155.625,1120,1171.625,1136,1155.625" style="stroke:#181818;stroke-width:4.0;"/><line style="stroke:#181818;stroke-width:4.0;" x1="520" x2="1144" y1="1155.625" y2="1155.625"/><text fill="#000000" font-family="sans-serif" font-size="52" lengthAdjust="spacing" textLength="448" x="548" y="1136.1992">Adatok módosítása</text><polygon fill="#181818" points="564,1261.0313,524,1277.0313,564,1293.0313,548,1277.0313" style="stroke:#181818;stroke-width:4.0;"/><line style="stroke:#181818;stroke-width:4.0;stroke-dasharray:2.0,2.0;" x1="540" x2="1184" y1="1277.0313" y2="1277.0313"/><text fill="#000000" font-family="sans-serif" font-size="52" lengthAdjust="spacing" textLength="120" x="588" y="1257.6055">Siker</text><polygon fill="#181818" points="44,1410.4375,4,1426.4375,44,1442.4375,28,1426.4375" style="stroke:#181818;stroke-width:4.0;"/><line style="stroke:#181818;stroke-width:4.0;stroke-dasharray:2.0,2.0;" x1="20" x2="496" y1="1426.4375" y2="1426.4375"/><text fill="#000000" font-family="sans-serif" font-size="52" lengthAdjust="spacing" textLength="404" x="68" y="1407.0117">Kérés feldolgozva</text><!--MD5=[963a1b90b98590ea75122721127d3603]
@startuml AdminModify
scale 5

participant "CAFF fájlkezelő" as caff
participant "Felhasználói adatkezelő" as felhasznalokezelo

-> caff : Módosítási kérés
activate caff
caff -> felhasznalokezelo : Jogosultság ellenőrzés
activate felhasznalokezelo
felhasznalokezelo - -> caff : Van jogosultság
deactivate felhasznalokezelo
alt CAFF módosítás
caff -> caff : CAFF adatok módosítása
activate caff
caff - -> caff : Siker
deactivate caff
else Felhasználó módosítás
caff -> felhasznalokezelo: Adatok módosítása
activate felhasznalokezelo
caff <- - felhasznalokezelo: Siker
deactivate felhasznalokezelo
end
<- - caff : Kérés feldolgozva
deactivate caff

@enduml

PlantUML version 1.2022.7(Mon Aug 22 19:01:30 CEST 2022)
(GPL source distribution)
Java Runtime: OpenJDK Runtime Environment
JVM: OpenJDK 64-Bit Server VM
Default Encoding: UTF-8
Language: en
Country: US
--></g></svg>