<?xml version="1.0" encoding="UTF-8" standalone="no"?><svg xmlns="http://www.w3.org/2000/svg" xmlns:xlink="http://www.w3.org/1999/xlink" contentStyleType="text/css" height="1208px" preserveAspectRatio="none" style="width:1572px;height:1208px;background:#FFFFFF;" version="1.1" viewBox="0 0 1572 1208" width="1572px" zoomAndPan="magnify"><defs/><g><rect fill="#FFFFFF" height="711.0313" style="stroke:#181818;stroke-width:4.0;" width="40" x="480" y="279.8438"/><rect fill="#FFFFFF" height="165.4063" style="stroke:#181818;stroke-width:4.0;" width="40" x="500" y="676.0625"/><rect fill="#FFFFFF" height="121.4063" style="stroke:#181818;stroke-width:4.0;" width="40" x="1256" y="401.25"/><line style="stroke:#181818;stroke-width:2.0;stroke-dasharray:5.0,5.0;" x1="498" x2="498" y1="150.4375" y2="1062.875"/><line style="stroke:#181818;stroke-width:2.0;stroke-dasharray:5.0,5.0;" x1="1274" x2="1274" y1="150.4375" y2="1062.875"/><rect fill="#E2E2F0" height="126.4375" rx="10" ry="10" style="stroke:#181818;stroke-width:2.0;" width="492" x="254" y="20"/><text fill="#000000" font-family="sans-serif" font-size="56" lengthAdjust="spacing" textLength="436" x="282" y="106.1328">CAFF adatkezelő</text><rect fill="#E2E2F0" height="126.4375" rx="10" ry="10" style="stroke:#181818;stroke-width:2.0;" width="492" x="254" y="1058.875"/><text fill="#000000" font-family="sans-serif" font-size="56" lengthAdjust="spacing" textLength="436" x="282" y="1145.0078">CAFF adatkezelő</text><rect fill="#E2E2F0" height="126.4375" rx="10" ry="10" style="stroke:#181818;stroke-width:2.0;" width="548" x="1002" y="20"/><text fill="#000000" font-family="sans-serif" font-size="56" lengthAdjust="spacing" textLength="492" x="1030" y="106.1328">Felhasználói kezelő</text><rect fill="#E2E2F0" height="126.4375" rx="10" ry="10" style="stroke:#181818;stroke-width:2.0;" width="548" x="1002" y="1058.875"/><text fill="#000000" font-family="sans-serif" font-size="56" lengthAdjust="spacing" textLength="492" x="1030" y="1145.0078">Felhasználói kezelő</text><rect fill="#FFFFFF" height="711.0313" style="stroke:#181818;stroke-width:4.0;" width="40" x="480" y="279.8438"/><rect fill="#FFFFFF" height="165.4063" style="stroke:#181818;stroke-width:4.0;" width="40" x="500" y="676.0625"/><rect fill="#FFFFFF" height="121.4063" style="stroke:#181818;stroke-width:4.0;" width="40" x="1256" y="401.25"/><polygon fill="#181818" points="432,263.8438,472,279.8438,432,295.8438,448,279.8438" style="stroke:#181818;stroke-width:4.0;"/><line style="stroke:#181818;stroke-width:4.0;" x1="0" x2="456" y1="279.8438" y2="279.8438"/><text fill="#000000" font-family="sans-serif" font-size="52" lengthAdjust="spacing" textLength="296" x="28" y="260.418">Törlési kérés</text><polygon fill="#181818" points="1208,385.25,1248,401.25,1208,417.25,1224,401.25" style="stroke:#181818;stroke-width:4.0;"/><line style="stroke:#181818;stroke-width:4.0;" x1="520" x2="1232" y1="401.25" y2="401.25"/><text fill="#000000" font-family="sans-serif" font-size="52" lengthAdjust="spacing" textLength="528" x="548" y="381.8242">Jogosultság ellenőrzés</text><polygon fill="#181818" points="564,506.6563,524,522.6563,564,538.6563,548,522.6563" style="stroke:#181818;stroke-width:4.0;"/><line style="stroke:#181818;stroke-width:4.0;stroke-dasharray:2.0,2.0;" x1="540" x2="1272" y1="522.6563" y2="522.6563"/><text fill="#000000" font-family="sans-serif" font-size="52" lengthAdjust="spacing" textLength="372" x="588" y="503.2305">Van jogosultság</text><line style="stroke:#181818;stroke-width:4.0;" x1="520" x2="708" y1="624.0625" y2="624.0625"/><line style="stroke:#181818;stroke-width:4.0;" x1="708" x2="708" y1="624.0625" y2="676.0625"/><line style="stroke:#181818;stroke-width:4.0;" x1="544" x2="708" y1="676.0625" y2="676.0625"/><polygon fill="#181818" points="584,660.0625,544,676.0625,584,692.0625,568,676.0625" style="stroke:#181818;stroke-width:4.0;"/><text fill="#000000" font-family="sans-serif" font-size="52" lengthAdjust="spacing" textLength="680" x="568" y="604.6367">CAFF fájl vagy adatok törlése</text><line style="stroke:#181818;stroke-width:4.0;stroke-dasharray:2.0,2.0;" x1="540" x2="708" y1="837.4688" y2="837.4688"/><line style="stroke:#181818;stroke-width:4.0;stroke-dasharray:2.0,2.0;" x1="708" x2="708" y1="837.4688" y2="889.4688"/><line style="stroke:#181818;stroke-width:4.0;stroke-dasharray:2.0,2.0;" x1="520" x2="708" y1="889.4688" y2="889.4688"/><polygon fill="#181818" points="560,873.4688,520,889.4688,560,905.4688,544,889.4688" style="stroke:#181818;stroke-width:4.0;"/><text fill="#000000" font-family="sans-serif" font-size="52" lengthAdjust="spacing" textLength="120" x="568" y="818.043">Siker</text><polygon fill="#181818" points="44,974.875,4,990.875,44,1006.875,28,990.875" style="stroke:#181818;stroke-width:4.0;"/><line style="stroke:#181818;stroke-width:4.0;stroke-dasharray:2.0,2.0;" x1="20" x2="496" y1="990.875" y2="990.875"/><text fill="#000000" font-family="sans-serif" font-size="52" lengthAdjust="spacing" textLength="404" x="68" y="971.4492">Kérés feldolgozva</text><!--MD5=[0238b4c4a27ce3aa4044eeee19d84bfd]
@startuml AdminDelete
scale 5

participant "CAFF adatkezelő" as caff
participant "Felhasználói kezelő" as felhasznalokezelo

-> caff : Törlési kérés
activate caff
caff -> felhasznalokezelo : Jogosultság ellenőrzés
activate felhasznalokezelo
felhasznalokezelo - -> caff : Van jogosultság
deactivate felhasznalokezelo
caff -> caff : CAFF fájl vagy adatok törlése
activate caff
caff - -> caff : Siker
deactivate caff
<- - caff : Kérés feldolgozva
deactivate caff

@enduml

PlantUML version 1.2022.7(Mon Aug 22 19:01:30 CEST 2022)
(GPL source distribution)
Java Runtime: OpenJDK Runtime Environment
JVM: OpenJDK 64-Bit Server VM
Default Encoding: Cp1252
Language: en
Country: US
--></g></svg>