<?xml version="1.0" encoding="UTF-8" standalone="no"?><svg xmlns="http://www.w3.org/2000/svg" xmlns:xlink="http://www.w3.org/1999/xlink" contentStyleType="text/css" height="1644px" preserveAspectRatio="none" style="width:1512px;height:1644px;background:#FFFFFF;" version="1.1" viewBox="0 0 1512 1644" width="1512px" zoomAndPan="magnify"><defs/><g><rect fill="#FFFFFF" height="1118.5938" style="stroke:#181818;stroke-width:4.0;" width="40" x="508" y="279.8438"/><rect fill="#FFFFFF" height="165.4063" style="stroke:#181818;stroke-width:4.0;" width="40" x="528" y="1083.625"/><rect fill="#FFFFFF" height="528.9688" style="stroke:#181818;stroke-width:4.0;" width="40" x="1152" y="401.25"/><rect fill="none" height="969.1875" style="stroke:#000000;stroke-width:6.0;" width="1474" x="12" y="461.25"/><line style="stroke:#181818;stroke-width:2.0;stroke-dasharray:5.0,5.0;" x1="526" x2="526" y1="150.4375" y2="1498.4375"/><line style="stroke:#181818;stroke-width:2.0;stroke-dasharray:5.0,5.0;" x1="1170" x2="1170" y1="150.4375" y2="1498.4375"/><rect fill="#E2E2F0" height="126.4375" rx="10" ry="10" style="stroke:#181818;stroke-width:2.0;" width="492" x="282" y="20"/><text fill="#000000" font-family="sans-serif" font-size="56" lengthAdjust="spacing" textLength="436" x="310" y="106.1328">CAFF adatkezelő</text><rect fill="#E2E2F0" height="126.4375" rx="10" ry="10" style="stroke:#181818;stroke-width:2.0;" width="492" x="282" y="1494.4375"/><text fill="#000000" font-family="sans-serif" font-size="56" lengthAdjust="spacing" textLength="436" x="310" y="1580.5703">CAFF adatkezelő</text><rect fill="#E2E2F0" height="126.4375" rx="10" ry="10" style="stroke:#181818;stroke-width:2.0;" width="548" x="898" y="20"/><text fill="#000000" font-family="sans-serif" font-size="56" lengthAdjust="spacing" textLength="492" x="926" y="106.1328">Felhasználói kezelő</text><rect fill="#E2E2F0" height="126.4375" rx="10" ry="10" style="stroke:#181818;stroke-width:2.0;" width="548" x="898" y="1494.4375"/><text fill="#000000" font-family="sans-serif" font-size="56" lengthAdjust="spacing" textLength="492" x="926" y="1580.5703">Felhasználói kezelő</text><rect fill="#FFFFFF" height="1118.5938" style="stroke:#181818;stroke-width:4.0;" width="40" x="508" y="279.8438"/><rect fill="#FFFFFF" height="165.4063" style="stroke:#181818;stroke-width:4.0;" width="40" x="528" y="1083.625"/><rect fill="#FFFFFF" height="528.9688" style="stroke:#181818;stroke-width:4.0;" width="40" x="1152" y="401.25"/><polygon fill="#181818" points="460,263.8438,500,279.8438,460,295.8438,476,279.8438" style="stroke:#181818;stroke-width:4.0;"/><line style="stroke:#181818;stroke-width:4.0;" x1="0" x2="484" y1="279.8438" y2="279.8438"/><text fill="#000000" font-family="sans-serif" font-size="52" lengthAdjust="spacing" textLength="296" x="28" y="260.418">Törlési kérés</text><polygon fill="#181818" points="1104,385.25,1144,401.25,1104,417.25,1120,401.25" style="stroke:#181818;stroke-width:4.0;"/><line style="stroke:#181818;stroke-width:4.0;" x1="548" x2="1128" y1="401.25" y2="401.25"/><text fill="#000000" font-family="sans-serif" font-size="52" lengthAdjust="spacing" textLength="528" x="576" y="381.8242">Jogosultság ellenőrzés</text><path d="M12,461.25 L256,461.25 L256,494.6563 L216,534.6563 L12,534.6563 L12,461.25 " fill="#EEEEEE" style="stroke:#000000;stroke-width:6.0;"/><rect fill="none" height="969.1875" style="stroke:#000000;stroke-width:6.0;" width="1474" x="12" y="461.25"/><text fill="#000000" font-family="sans-serif" font-size="52" font-weight="bold" lengthAdjust="spacing" textLength="64" x="72" y="519.2305">alt</text><text fill="#000000" font-family="sans-serif" font-size="44" font-weight="bold" lengthAdjust="spacing" textLength="324" x="316" y="514.9258">[nem jogosult]</text><polygon fill="#181818" points="592,608.0625,552,624.0625,592,640.0625,576,624.0625" style="stroke:#181818;stroke-width:4.0;"/><line style="stroke:#181818;stroke-width:4.0;stroke-dasharray:2.0,2.0;" x1="568" x2="1148" y1="624.0625" y2="624.0625"/><text fill="#000000" font-family="sans-serif" font-size="52" lengthAdjust="spacing" textLength="412" x="616" y="604.6367">Nincs jogosultság</text><polygon fill="#181818" points="44,729.4688,4,745.4688,44,761.4688,28,745.4688" style="stroke:#181818;stroke-width:4.0;"/><line style="stroke:#181818;stroke-width:4.0;stroke-dasharray:2.0,2.0;" x1="20" x2="504" y1="745.4688" y2="745.4688"/><text fill="#000000" font-family="sans-serif" font-size="52" lengthAdjust="spacing" textLength="368" x="68" y="726.043">Kérés elutasítva</text><line style="stroke:#000000;stroke-width:4.0;stroke-dasharray:2.0,2.0;" x1="12" x2="1486" y1="781.4688" y2="781.4688"/><text fill="#000000" font-family="sans-serif" font-size="44" font-weight="bold" lengthAdjust="spacing" textLength="212" x="32" y="827.1445">[jogosult]</text><polygon fill="#181818" points="592,914.2188,552,930.2188,592,946.2188,576,930.2188" style="stroke:#181818;stroke-width:4.0;"/><line style="stroke:#181818;stroke-width:4.0;stroke-dasharray:2.0,2.0;" x1="568" x2="1168" y1="930.2188" y2="930.2188"/><text fill="#000000" font-family="sans-serif" font-size="52" lengthAdjust="spacing" textLength="372" x="616" y="910.793">Van jogosultság</text><line style="stroke:#181818;stroke-width:4.0;" x1="548" x2="736" y1="1031.625" y2="1031.625"/><line style="stroke:#181818;stroke-width:4.0;" x1="736" x2="736" y1="1031.625" y2="1083.625"/><line style="stroke:#181818;stroke-width:4.0;" x1="572" x2="736" y1="1083.625" y2="1083.625"/><polygon fill="#181818" points="612,1067.625,572,1083.625,612,1099.625,596,1083.625" style="stroke:#181818;stroke-width:4.0;"/><text fill="#000000" font-family="sans-serif" font-size="52" lengthAdjust="spacing" textLength="388" x="596" y="1012.1992">CAFF fájl törlése</text><line style="stroke:#181818;stroke-width:4.0;stroke-dasharray:2.0,2.0;" x1="568" x2="736" y1="1245.0313" y2="1245.0313"/><line style="stroke:#181818;stroke-width:4.0;stroke-dasharray:2.0,2.0;" x1="736" x2="736" y1="1245.0313" y2="1297.0313"/><line style="stroke:#181818;stroke-width:4.0;stroke-dasharray:2.0,2.0;" x1="548" x2="736" y1="1297.0313" y2="1297.0313"/><polygon fill="#181818" points="588,1281.0313,548,1297.0313,588,1313.0313,572,1297.0313" style="stroke:#181818;stroke-width:4.0;"/><text fill="#000000" font-family="sans-serif" font-size="52" lengthAdjust="spacing" textLength="120" x="596" y="1225.6055">Siker</text><polygon fill="#181818" points="44,1382.4375,4,1398.4375,44,1414.4375,28,1398.4375" style="stroke:#181818;stroke-width:4.0;"/><line style="stroke:#181818;stroke-width:4.0;stroke-dasharray:2.0,2.0;" x1="20" x2="524" y1="1398.4375" y2="1398.4375"/><text fill="#000000" font-family="sans-serif" font-size="52" lengthAdjust="spacing" textLength="404" x="68" y="1379.0117">Kérés feldolgozva</text><!--MD5=[5920f68dfbdfbf6636a29a006c70933b]
@startuml Delete
scale 5

participant "CAFF adatkezelő" as caff
participant "Felhasználói kezelő" as felhasznalokezelo

-> caff : Törlési kérés
activate caff
caff -> felhasznalokezelo : Jogosultság ellenőrzés
activate felhasznalokezelo
alt nem jogosult
    felhasznalokezelo - -> caff : Nincs jogosultság
    <- - caff : Kérés elutasítva 
else jogosult
    felhasznalokezelo - -> caff : Van jogosultság
    deactivate felhasznalokezelo
    caff -> caff : CAFF fájl törlése
    activate caff
    caff - -> caff : Siker
    deactivate caff
    <- - caff : Kérés feldolgozva
    deactivate caff 
end

@enduml

PlantUML version 1.2022.7(Mon Aug 22 19:01:30 CEST 2022)
(GPL source distribution)
Java Runtime: OpenJDK Runtime Environment
JVM: OpenJDK 64-Bit Server VM
Default Encoding: Cp1252
Language: en
Country: US
--></g></svg>