<?xml version="1.0" encoding="UTF-8" standalone="no"?><svg xmlns="http://www.w3.org/2000/svg" xmlns:xlink="http://www.w3.org/1999/xlink" contentStyleType="text/css" height="1884px" preserveAspectRatio="none" style="width:2084px;height:1884px;background:#FFFFFF;" version="1.1" viewBox="0 0 2084 1884" width="2084px" zoomAndPan="magnify"><defs/><g><rect fill="#FFFFFF" height="1361.4063" style="stroke:#181818;stroke-width:4.0;" width="40" x="508" y="279.8438"/><rect fill="#FFFFFF" height="408.2188" style="stroke:#181818;stroke-width:4.0;" width="40" x="528" y="1083.625"/><rect fill="#FFFFFF" height="528.9688" style="stroke:#181818;stroke-width:4.0;" width="40" x="1152" y="401.25"/><rect fill="#FFFFFF" height="121.4063" style="stroke:#181818;stroke-width:4.0;" width="40" x="1760" y="1225.0313"/><rect fill="none" height="1212" style="stroke:#000000;stroke-width:6.0;" width="2046" x="12" y="461.25"/><line style="stroke:#181818;stroke-width:2.0;stroke-dasharray:5.0,5.0;" x1="526" x2="526" y1="150.4375" y2="1741.25"/><line style="stroke:#181818;stroke-width:2.0;stroke-dasharray:5.0,5.0;" x1="1170" x2="1170" y1="150.4375" y2="1741.25"/><line style="stroke:#181818;stroke-width:2.0;stroke-dasharray:5.0,5.0;" x1="1778" x2="1778" y1="150.4375" y2="1741.25"/><rect fill="#E2E2F0" height="126.4375" rx="10" ry="10" style="stroke:#181818;stroke-width:2.0;" width="452" x="302" y="20"/><text fill="#000000" font-family="sans-serif" font-size="56" lengthAdjust="spacing" textLength="396" x="330" y="106.1328">CAFF fájlkezelő</text><rect fill="#E2E2F0" height="126.4375" rx="10" ry="10" style="stroke:#181818;stroke-width:2.0;" width="452" x="302" y="1737.25"/><text fill="#000000" font-family="sans-serif" font-size="56" lengthAdjust="spacing" textLength="396" x="330" y="1823.3828">CAFF fájlkezelő</text><rect fill="#E2E2F0" height="126.4375" rx="10" ry="10" style="stroke:#181818;stroke-width:2.0;" width="660" x="842" y="20"/><text fill="#000000" font-family="sans-serif" font-size="56" lengthAdjust="spacing" textLength="604" x="870" y="106.1328">Felhasználói adatkezelő</text><rect fill="#E2E2F0" height="126.4375" rx="10" ry="10" style="stroke:#181818;stroke-width:2.0;" width="660" x="842" y="1737.25"/><text fill="#000000" font-family="sans-serif" font-size="56" lengthAdjust="spacing" textLength="604" x="870" y="1823.3828">Felhasználói adatkezelő</text><rect fill="#E2E2F0" height="126.4375" rx="10" ry="10" style="stroke:#181818;stroke-width:2.0;" width="476" x="1542" y="20"/><text fill="#000000" font-family="sans-serif" font-size="56" lengthAdjust="spacing" textLength="420" x="1570" y="106.1328">CAFF feldoglozó</text><rect fill="#E2E2F0" height="126.4375" rx="10" ry="10" style="stroke:#181818;stroke-width:2.0;" width="476" x="1542" y="1737.25"/><text fill="#000000" font-family="sans-serif" font-size="56" lengthAdjust="spacing" textLength="420" x="1570" y="1823.3828">CAFF feldoglozó</text><rect fill="#FFFFFF" height="1361.4063" style="stroke:#181818;stroke-width:4.0;" width="40" x="508" y="279.8438"/><rect fill="#FFFFFF" height="408.2188" style="stroke:#181818;stroke-width:4.0;" width="40" x="528" y="1083.625"/><rect fill="#FFFFFF" height="528.9688" style="stroke:#181818;stroke-width:4.0;" width="40" x="1152" y="401.25"/><rect fill="#FFFFFF" height="121.4063" style="stroke:#181818;stroke-width:4.0;" width="40" x="1760" y="1225.0313"/><polygon fill="#181818" points="460,263.8438,500,279.8438,460,295.8438,476,279.8438" style="stroke:#181818;stroke-width:4.0;"/><line style="stroke:#181818;stroke-width:4.0;" x1="0" x2="484" y1="279.8438" y2="279.8438"/><text fill="#000000" font-family="sans-serif" font-size="52" lengthAdjust="spacing" textLength="356" x="28" y="260.418">Feltöltési kérés</text><polygon fill="#181818" points="1104,385.25,1144,401.25,1104,417.25,1120,401.25" style="stroke:#181818;stroke-width:4.0;"/><line style="stroke:#181818;stroke-width:4.0;" x1="548" x2="1128" y1="401.25" y2="401.25"/><text fill="#000000" font-family="sans-serif" font-size="52" lengthAdjust="spacing" textLength="528" x="576" y="381.8242">Jogosultság ellenőrzés</text><path d="M12,461.25 L256,461.25 L256,494.6563 L216,534.6563 L12,534.6563 L12,461.25 " fill="#EEEEEE" style="stroke:#000000;stroke-width:6.0;"/><rect fill="none" height="1212" style="stroke:#000000;stroke-width:6.0;" width="2046" x="12" y="461.25"/><text fill="#000000" font-family="sans-serif" font-size="52" font-weight="bold" lengthAdjust="spacing" textLength="64" x="72" y="519.2305">alt</text><text fill="#000000" font-family="sans-serif" font-size="44" font-weight="bold" lengthAdjust="spacing" textLength="324" x="316" y="514.9258">[nem jogosult]</text><polygon fill="#181818" points="592,608.0625,552,624.0625,592,640.0625,576,624.0625" style="stroke:#181818;stroke-width:4.0;"/><line style="stroke:#181818;stroke-width:4.0;stroke-dasharray:2.0,2.0;" x1="568" x2="1148" y1="624.0625" y2="624.0625"/><text fill="#000000" font-family="sans-serif" font-size="52" lengthAdjust="spacing" textLength="412" x="616" y="604.6367">Nincs jogosultság</text><polygon fill="#181818" points="44,729.4688,4,745.4688,44,761.4688,28,745.4688" style="stroke:#181818;stroke-width:4.0;"/><line style="stroke:#181818;stroke-width:4.0;stroke-dasharray:2.0,2.0;" x1="20" x2="504" y1="745.4688" y2="745.4688"/><text fill="#000000" font-family="sans-serif" font-size="52" lengthAdjust="spacing" textLength="368" x="68" y="726.043">Kérés elutasítva</text><line style="stroke:#000000;stroke-width:4.0;stroke-dasharray:2.0,2.0;" x1="12" x2="2058" y1="781.4688" y2="781.4688"/><text fill="#000000" font-family="sans-serif" font-size="44" font-weight="bold" lengthAdjust="spacing" textLength="212" x="32" y="827.1445">[jogosult]</text><polygon fill="#181818" points="592,914.2188,552,930.2188,592,946.2188,576,930.2188" style="stroke:#181818;stroke-width:4.0;"/><line style="stroke:#181818;stroke-width:4.0;stroke-dasharray:2.0,2.0;" x1="568" x2="1168" y1="930.2188" y2="930.2188"/><text fill="#000000" font-family="sans-serif" font-size="52" lengthAdjust="spacing" textLength="372" x="616" y="910.793">Van jogosultság</text><line style="stroke:#181818;stroke-width:4.0;" x1="548" x2="736" y1="1031.625" y2="1031.625"/><line style="stroke:#181818;stroke-width:4.0;" x1="736" x2="736" y1="1031.625" y2="1083.625"/><line style="stroke:#181818;stroke-width:4.0;" x1="572" x2="736" y1="1083.625" y2="1083.625"/><polygon fill="#181818" points="612,1067.625,572,1083.625,612,1099.625,596,1083.625" style="stroke:#181818;stroke-width:4.0;"/><text fill="#000000" font-family="sans-serif" font-size="52" lengthAdjust="spacing" textLength="440" x="596" y="1012.1992">CAFF fájl feltöltése</text><polygon fill="#181818" points="1712,1209.0313,1752,1225.0313,1712,1241.0313,1728,1225.0313" style="stroke:#181818;stroke-width:4.0;"/><line style="stroke:#181818;stroke-width:4.0;" x1="568" x2="1736" y1="1225.0313" y2="1225.0313"/><text fill="#000000" font-family="sans-serif" font-size="52" lengthAdjust="spacing" textLength="388" x="596" y="1205.6055">Fájl feldolgozása</text><polygon fill="#181818" points="612,1330.4375,572,1346.4375,612,1362.4375,596,1346.4375" style="stroke:#181818;stroke-width:4.0;"/><line style="stroke:#181818;stroke-width:4.0;stroke-dasharray:2.0,2.0;" x1="588" x2="1776" y1="1346.4375" y2="1346.4375"/><text fill="#000000" font-family="sans-serif" font-size="52" lengthAdjust="spacing" textLength="364" x="636" y="1327.0117">Feldolgozott fájl</text><line style="stroke:#181818;stroke-width:4.0;stroke-dasharray:2.0,2.0;" x1="568" x2="736" y1="1487.8438" y2="1487.8438"/><line style="stroke:#181818;stroke-width:4.0;stroke-dasharray:2.0,2.0;" x1="736" x2="736" y1="1487.8438" y2="1539.8438"/><line style="stroke:#181818;stroke-width:4.0;stroke-dasharray:2.0,2.0;" x1="548" x2="736" y1="1539.8438" y2="1539.8438"/><polygon fill="#181818" points="588,1523.8438,548,1539.8438,588,1555.8438,572,1539.8438" style="stroke:#181818;stroke-width:4.0;"/><text fill="#000000" font-family="sans-serif" font-size="52" lengthAdjust="spacing" textLength="120" x="596" y="1468.418">Siker</text><polygon fill="#181818" points="44,1625.25,4,1641.25,44,1657.25,28,1641.25" style="stroke:#181818;stroke-width:4.0;"/><line style="stroke:#181818;stroke-width:4.0;stroke-dasharray:2.0,2.0;" x1="20" x2="524" y1="1641.25" y2="1641.25"/><text fill="#000000" font-family="sans-serif" font-size="52" lengthAdjust="spacing" textLength="404" x="68" y="1621.8242">Kérés feldolgozva</text><!--MD5=[4064dc52f3ebe94e130868f48b6f0c14]
@startuml Upload
scale 5

participant "CAFF fájlkezelő" as caff
participant "Felhasználói adatkezelő" as felhasznalokezelo
participant "CAFF feldoglozó" as caffParser

-> caff : Feltöltési kérés
activate caff
caff -> felhasznalokezelo : Jogosultság ellenőrzés
activate felhasznalokezelo
alt nem jogosult
    felhasznalokezelo - -> caff : Nincs jogosultság
    <- - caff : Kérés elutasítva 
else jogosult
    felhasznalokezelo - -> caff : Van jogosultság
    deactivate felhasznalokezelo
    caff -> caff : CAFF fájl feltöltése
    activate caff
    caff -> caffParser: Fájl feldolgozása
    activate caffParser
    caff <- - caffParser: Feldolgozott fájl
    deactivate caffParser
    caff - -> caff : Siker
    deactivate caff
    <- - caff : Kérés feldolgozva
    deactivate caff 
end

@enduml

PlantUML version 1.2022.7(Mon Aug 22 19:01:30 CEST 2022)
(GPL source distribution)
Java Runtime: OpenJDK Runtime Environment
JVM: OpenJDK 64-Bit Server VM
Default Encoding: UTF-8
Language: en
Country: US
--></g></svg>